<?xml version="1.0" encoding="UTF-8"?>
<svg width="647px" height="468px" viewBox="0 0 647 468" version="1.1" xmlns="http://www.w3.org/2000/svg" xmlns:xlink="http://www.w3.org/1999/xlink">
    <!-- Generator: Sketch 60.1 (88133) - https://sketch.com -->
    <title>3</title>
    <desc>Created with Sketch.</desc>
    <defs>
        <path d="M224.928217,18.1025088 C137.950492,-16.2667795 77.6517297,-1.69611186 44.0319303,61.8145116 C-6.39776873,157.080447 -26.0693444,276.65434 53.9166524,355.61918 C133.902649,434.58402 228.690283,387.131731 249.046939,377.714571 C269.403594,368.297411 364.492664,334.155243 456.473428,377.714571 C548.454193,421.273899 607.735122,419.595903 633.975634,368.297411 C660.216146,316.998919 622.885172,299.269664 599.702073,245.719503 C576.518974,192.169341 594.824305,145.452962 585.67164,120.774432 C576.518974,96.0959023 548.19582,32.0859652 486.546472,10.6096937 C424.897124,-10.8665778 383.391155,22.4126391 352.43526,33.3191087 C331.797997,40.5900885 289.295649,35.5178885 224.928217,18.1025088 Z" id="path-1"></path>
        <path d="M224.928217,18.1025088 C137.950492,-16.2667795 77.6517297,-1.69611186 44.0319303,61.8145116 C-6.39776873,157.080447 -26.0693444,276.65434 53.9166524,355.61918 C133.902649,434.58402 228.690283,387.131731 249.046939,377.714571 C269.403594,368.297411 364.492664,334.155243 456.473428,377.714571 C548.454193,421.273899 607.735122,419.595903 633.975634,368.297411 C660.216146,316.998919 622.885172,299.269664 599.702073,245.719503 C576.518974,192.169341 594.824305,145.452962 585.67164,120.774432 C576.518974,96.0959023 548.19582,32.0859652 486.546472,10.6096937 C424.897124,-10.8665778 383.391155,22.4126391 352.43526,33.3191087 C331.797997,40.5900885 289.295649,35.5178885 224.928217,18.1025088 Z" id="path-3"></path>
    </defs>
    <g id="页面-1" stroke="none" stroke-width="1" fill="none" fill-rule="evenodd">
        <g id="画板" transform="translate(-2080.000000, -1268.000000)">
            <g id="3" transform="translate(2073.332298, 1268.000000)">
                <g id="编组-90" transform="translate(10.370137, 58.380820)">
                    <mask id="mask-2" fill="white">
                        <use xlink:href="#path-1"></use>
                    </mask>
                    <use id="路径-295" fill="#F3F7FF" xlink:href="#path-1"></use>
                    <rect id="矩形" fill="#D0DEFE" mask="url(#mask-2)" x="5.62986282" y="311.61918" width="697" height="118"></rect>
                    <rect id="矩形" fill="#A4C3FC" mask="url(#mask-2)" transform="translate(354.129863, 305.119180) scale(1, -1) translate(-354.129863, -305.119180) " x="5.62986282" y="298.61918" width="697" height="13"></rect>
                </g>
                <g id="编组-90" transform="translate(10.370137, 58.380820)">
                    <mask id="mask-4" fill="white">
                        <use xlink:href="#path-3"></use>
                    </mask>
                    <use id="路径-295" fill="#F3F7FF" xlink:href="#path-3"></use>
                    <rect id="矩形" fill="#D0DEFE" mask="url(#mask-4)" x="5.62986282" y="311.61918" width="697" height="118"></rect>
                    <rect id="矩形" fill="#A4C3FC" mask="url(#mask-4)" transform="translate(354.129863, 305.119180) scale(1, -1) translate(-354.129863, -305.119180) " x="5.62986282" y="298.61918" width="697" height="13"></rect>
                </g>
                <g id="编组-75" transform="translate(280.500000, 235.500000) rotate(23.000000) translate(-280.500000, -235.500000) translate(80.000000, 88.000000)">
                    <rect id="矩形" fill="#FFE3AE" x="75" y="66" width="326" height="229" rx="8"></rect>
                    <rect id="矩形" fill="#96BAFF" x="67" y="56" width="326" height="229" rx="8"></rect>
                    <rect id="矩形" fill="#DDE9FF" x="14.3844014" y="15.65298" width="326" height="229" rx="8"></rect>
                    <rect id="矩形" fill="#FFFFFF" x="0" y="0" width="326" height="229" rx="8"></rect>
                    <path d="M318,1.27897692e-13 C322.418278,1.27897692e-13 326,3.581722 326,8 L326,221 C326,225.418278 322.418278,229 318,229 L8,229 C3.581722,229 5.36459765e-13,225.418278 5.36459765e-13,221 L5.36459765e-13,8 C5.36459765e-13,3.581722 3.581722,1.27897692e-13 8,1.27897692e-13 L318,1.27897692e-13 Z M318,1 L8,1 C4.21454828,1 1.13090132,4.00478338 1.00405902,7.75935025 L1,8 L1,221 C1,224.785452 4.00478338,227.869099 7.75935025,227.995941 L8,228 L318,228 C321.785452,228 324.869099,224.995217 324.995941,221.24065 L325,221 L325,8 C325,4.21454828 321.995217,1.13090132 318.24065,1.00405902 L318,1 Z" id="矩形" fill="#C4D6FF" fill-rule="nonzero"></path>
                    <rect id="矩形" fill="#DDE9FF" x="166.223795" y="43.3059029" width="115" height="67" rx="12.5"></rect>
                    <rect id="矩形" fill="#FFE0A5" x="192.81986" y="40.4053458" width="85" height="67" rx="12.5"></rect>
                    <path d="M258.239034,102.299117 C256.970577,102.299117 256.239034,101.591083 256.239034,100.36339 L256.239034,66.2348433 C256.239034,65.007151 256.970577,64.2991168 258.239034,64.2991168 C259.50749,64.2991168 260.239034,65.007151 260.239034,66.2348433 L260.239034,100.36339 C260.239034,101.591083 259.50749,102.299117 258.239034,102.299117 Z M244.186505,102.312329 C243.414693,102.312329 242.683149,101.611815 242.683149,100.872741 L242.683149,83.7519182 C242.683149,83.0128436 243.414693,82.3123295 244.186505,82.3123295 L245.179794,82.3123295 C245.951606,82.3123295 246.683149,83.0128436 246.683149,83.7519182 L246.683149,100.872741 C246.683149,101.611815 245.951606,102.312329 245.179794,102.312329 L244.186505,102.312329 Z M229.502578,101.988048 C228.621352,101.988048 227.786103,101.274006 227.786103,100.52066 L227.786103,80.6454103 C227.786103,79.8920637 228.621352,79.1780221 229.502578,79.1780221 L229.855068,79.1780221 C230.107942,79.0273528 230.34549,78.9880477 230.514072,78.9880477 C231.150087,78.9880477 231.786103,79.4990133 231.786103,80.6454103 L231.786103,100.52066 C231.786103,101.274006 230.950854,101.988048 230.069628,101.988048 L229.502578,101.988048 Z M212.171075,102.060956 C211.42778,102.060956 211.02165,101.589142 211.02165,101.141838 L211.02165,92.9800733 C211.02165,92.3857105 211.611688,92.0609556 212.171075,92.0609556 L213.872225,92.0609556 C214.61552,92.0609556 215.02165,92.5327693 215.02165,92.9800733 L215.02165,101.141838 C215.02165,101.589142 214.61552,102.060956 213.872225,102.060956 L212.171075,102.060956 Z M214.641275,81.8991462 L214.609386,81.8991462 C214.47545,81.8927382 214.35427,81.8286578 214.271357,81.7261292 L211.911533,78.8809612 C211.745707,78.6823121 211.764841,78.3875425 211.956178,78.2145255 L232.250666,59.2467389 C232.346335,59.1570264 232.461137,59.1185781 232.582317,59.1185781 C232.69712,59.1185781 232.805544,59.1570264 232.901212,59.2403308 L239.623522,65.0972758 L250.803987,52.9668636 L246.3841,48.0839401 C246.26292,47.9493714 246.224652,47.7635383 246.288431,47.5969294 C246.345833,47.4303204 246.492524,47.3085678 246.671106,47.2765276 L262.245945,44.9055542 C262.271457,44.8991462 262.296969,44.8991462 262.316102,44.8991462 C262.450038,44.8991462 262.583974,44.9568185 262.673265,45.0593471 C262.781689,45.1810998 262.826335,45.3477087 262.781689,45.5079096 L258.993215,60.1951282 C258.948569,60.3681452 258.814633,60.5027139 258.64243,60.5475702 C258.604163,60.5539782 258.565895,60.5603862 258.527628,60.5603862 C258.393692,60.5603862 258.259756,60.5027139 258.170465,60.4001853 L254.279944,56.0555369 L240.484539,71.3066627 C240.388871,71.4091912 240.261313,71.4668636 240.127377,71.4668636 C240.018952,71.4668636 239.910528,71.4284153 239.821237,71.3579269 L232.595073,65.4625338 L214.966548,81.7709855 C214.877258,81.85429 214.756078,81.8991462 214.641275,81.8991462 Z" id="形状" fill="#FFFFFF" fill-rule="nonzero"></path>
                    <rect id="矩形" fill="#DDE9FF" x="157.141756" y="131.684131" width="114" height="5" rx="2.5"></rect>
                    <rect id="矩形" fill="#DDE9FF" x="157.141756" y="141.684131" width="114" height="5" rx="2.5"></rect>
                    <rect id="矩形" fill="#DDE9FF" x="157.141756" y="151.684131" width="114" height="5" rx="2.5"></rect>
                    <polygon id="Rectangle" fill="#EAF2FF" points="29.7556149 180.324538 92.9852519 180.324538 103.755615 196.219568 92.9852519 212.324538 29.7556149 212.324538"></polygon>
                    <polygon id="Rectangle-Copy-2" fill="#E5EEFF" points="97.2570325 179.99071 200.008357 179.99071 210.912205 195.99071 200.008357 211.99071 97.2570325 211.99071 108.160881 195.99071"></polygon>
                    <polygon id="Rectangle-Copy-2备份" fill="#DDE9FF" points="207.121047 179.660603 285.703633 179.660603 296.500357 195.660603 285.703633 211.660603 207.121047 211.660603 217.91777 195.660603"></polygon>
                </g>
                <g id="编组-133" transform="translate(66.000000, 0.609863)" fill-rule="nonzero">
                    <path d="M169.570312,92.8901367 C169.570312,82.6557617 175.996094,73.9838867 185,70.5268555 C182.851562,62.0893555 176.8125,46.0141602 172.476562,38.7094727 C163.648437,42.6352539 155.045573,46.9197591 148.476562,41.9135742 C141.25,34.6870117 139.648437,24.003418 143.574219,15.1948242 C136.25,10.8588867 128.300781,7.53857422 119.863281,5.39013672 C116.386719,14.394043 107.714844,20.8198242 97.5,20.8198242 C87.265625,20.8198242 70.1796875,9.00390625 66.7226563,-1.27897692e-13 C58.2851563,2.1484375 53.8476562,3.65966797 46.5429687,7.99560547 C50.46875,16.8237305 53.7695312,34.6870117 46.5429687,41.9135742 C39.3164062,49.1401367 28.6328125,50.7416992 19.8242187,46.8354492 C15.46875,54.1401367 12.1484375,62.0893555 10,70.5268555 C19.0039062,74.003418 25.4296875,82.675293 25.4296875,92.8901367 C25.4296875,103.124512 12.2680664,112.436035 3.26416016,115.893066 C5.41259766,124.330566 7.63232422,130.582764 11.9682617,137.887451 C20.7963867,133.96167 39.296875,136.620605 46.5234375,143.866699 C53.75,151.093262 44.4516602,158.69751 40.5258789,167.506104 C47.8500977,171.842041 66.6992187,178.241699 75.1367187,180.390137 C78.6132812,171.38623 87.2851562,164.960449 97.5,164.960449 C107.734375,164.960449 108.066406,171.38623 111.523437,180.390137 C119.960937,178.241699 136.25,174.921387 143.554687,170.585449 C139.628906,161.757324 141.230469,151.093262 148.457031,143.866699 C155.683594,136.640137 166.367187,135.038574 175.175781,138.944824 C179.53125,131.640137 182.851562,123.690918 185,115.253418 C175.996094,111.796387 169.570312,103.124512 169.570312,92.8901367 Z M97.5,116.913574 C84.2382812,116.913574 73.4765625,106.151855 73.4765625,92.8901367 C73.4765625,79.628418 84.2382812,68.8666992 97.5,68.8666992 C110.761719,68.8666992 121.523437,79.628418 121.523437,92.8901367 C121.523437,106.151855 110.761719,116.913574 97.5,116.913574 Z" id="形状" fill="#FFBB3C"></path>
                    <path d="M159.570312,87.8901367 C159.570312,77.6557617 165.996094,68.9838867 175,65.5268555 C172.851562,57.0893555 169.53125,49.1401367 165.195312,41.8354492 C156.367188,45.7612305 145.703125,44.159668 138.476562,36.9135742 C131.25,29.6870117 129.648438,19.003418 133.574219,10.1948242 C126.25,5.85888672 118.300781,2.53857422 109.863281,0.390136719 C106.386719,9.39404297 97.7148437,15.8198242 87.5,15.8198242 C77.265625,15.8198242 68.59375,9.39404297 65.1367188,0.390136719 C56.6992188,2.53857422 48.75,5.85888672 41.4453125,10.1948242 C45.3710938,19.0229492 43.7695312,29.6870117 36.5429688,36.9135742 C29.3164062,44.1401367 18.6328125,45.7416992 9.82421875,41.8354492 C5.46875,49.1401367 2.1484375,57.0893555 0,65.5268555 C9.00390625,69.003418 15.4296875,77.675293 15.4296875,87.8901367 C15.4296875,98.1245117 9.00390625,106.796387 0,110.253418 C2.1484375,118.690918 5.46875,126.640137 9.8046875,133.944824 C18.6328125,130.019043 29.296875,131.620605 36.5234375,138.866699 C43.75,146.093262 45.3515625,156.776855 41.4257813,165.585449 C48.75,169.921387 56.6992188,173.241699 65.1367188,175.390137 C68.6132812,166.38623 77.2851562,159.960449 87.5,159.960449 C97.734375,159.960449 106.40625,166.38623 109.863281,175.390137 C118.300781,173.241699 126.25,169.921387 133.554688,165.585449 C129.628906,156.757324 131.230469,146.093262 138.457031,138.866699 C145.683594,131.640137 156.367188,130.038574 165.175781,133.944824 C169.53125,126.640137 172.851562,118.690918 175,110.253418 C165.996094,106.796387 159.570312,98.1245117 159.570312,87.8901367 Z M87.5,111.913574 C74.2382812,111.913574 63.4765625,101.151855 63.4765625,87.8901367 C63.4765625,74.628418 74.2382812,63.8666992 87.5,63.8666992 C100.761719,63.8666992 111.523438,74.628418 111.523438,87.8901367 C111.523438,101.151855 100.761719,111.913574 87.5,111.913574 Z" id="形状" fill="#FFCA65"></path>
                </g>
                <circle id="椭圆形" fill="#C9DCFF" cx="332" cy="76" r="13"></circle>
                <circle id="椭圆形" fill="#C9DCFF" cx="231.5" cy="11.5" r="9.5"></circle>
                <circle id="椭圆形" fill="#F2F6FF" cx="44" cy="94" r="6"></circle>
                <ellipse id="椭圆形" fill="#D0DEFE" cx="303" cy="444.5" rx="16" ry="12.5"></ellipse>
                <ellipse id="椭圆形" fill="#D0DEFE" transform="translate(617.500000, 273.500000) rotate(-14.000000) translate(-617.500000, -273.500000) " cx="617.5" cy="273.5" rx="10.5" ry="36.5"></ellipse>
                <path d="M447.861931,205.463326 C548.114276,219.360013 612.5,247.229877 612.5,278.5 C612.5,323.960967 477.10383,360.5 310,360.5 C142.89617,360.5 7.5,323.960967 7.5,278.5 C7.5,260.613004 28.3792139,243.737297 66.3755351,229.795091 L67.5321743,229.3735 L67.8726239,230.313763 C29.5077488,244.204887 8.5,261.004512 8.5,278.5 C8.5,323.061447 143.523841,359.5 310,359.5 C476.476159,359.5 611.5,323.061447 611.5,278.5 C611.5,248.307739 548.722167,220.83194 450.705584,206.872714 L447.724627,206.453855 L447.861931,205.463326 Z" id="路径" fill="#FFCA65" fill-rule="nonzero"></path>
                <path d="M475.272313,209.154947 C561.301038,224.106478 614.390191,249.797243 614.390191,278.217509 C614.390191,323.678476 478.994021,360.217509 311.890191,360.217509 C144.786361,360.217509 9.39019092,323.678476 9.39019092,278.217509 C9.39019092,252.981178 51.1595817,229.8467 121.568923,214.42312 L123.711292,213.958105 L123.921556,214.93575 C52.6808151,230.257643 10.3901909,253.4253 10.3901909,278.217509 C10.3901909,322.778956 145.414032,359.217509 311.890191,359.217509 C478.36635,359.217509 613.390191,322.778956 613.390191,278.217509 C613.390191,250.81272 561.681555,225.515963 477.657148,210.589318 L475.101083,210.140178 L475.272313,209.154947 Z" id="路径" fill="#FFCA65" fill-rule="nonzero" transform="translate(311.890191, 284.686228) rotate(-17.000000) translate(-311.890191, -284.686228) "></path>
            </g>
        </g>
    </g>
</svg>